<svg height="512pt" viewBox="0 0 512 512" width="512pt" xmlns="http://www.w3.org/2000/svg"><path d="m90 286c-8.277344 0-15 6.722656-15 15s6.722656 15 15 15 15-6.722656 15-15-6.722656-15-15-15zm0 0"/><path d="m241 361h-84.40625c14.390625-15.960938 23.40625-36.867188 23.40625-60 0-49.628906-40.371094-90-90-90s-90 40.371094-90 90c0 23.132812 9.015625 44.039062 23.40625 60h-23.40625v30h241zm-151-15c-24.8125 0-45-20.1875-45-45s20.1875-45 45-45 45 20.1875 45 45-20.1875 45-45 45zm0 0"/><path d="m331 331h-30v-30h66.398438c12.601562-34.800781 45.601562-60 84.601562-60 23.101562 0 44.097656 9 60 23.398438v-53.398438h-90v-121.199219l-79.601562-31.5-26.441407 26.441407-38.746093-38.742188 19.394531-19.394531-21.210938-21.210938-60 60 21.210938 21.210938 19.394531-19.394531 38.746094 38.742187-23.746094 23.746094v51.300781h-37.800781c-31.5-38.101562-78.398438-60-128.199219-60-38.101562 0-75.300781 13.199219-104.699219 37.5l18.898438 23.097656c3.300781-2.699218 7.199219-4.796875 10.800781-7.5v23.703125c17.699219-10.5 38.101562-16.800781 60-16.800781 66.300781 0 120 53.699219 120 120h61v30h-30v30h90zm31-150h30v30h-30zm0 0"/><path d="m452 181h60v-55.199219l-60-24.023437zm0 0"/><path d="m512 391v-30h-8.34375c5.167969-8.859375 8.34375-19.023438 8.34375-30 0-33.089844-26.910156-60-60-60s-60 26.910156-60 60c0 10.976562 3.175781 21.140625 8.34375 30h-69.34375v30zm-75-75h30v30h-30zm0 0"/><path d="m512 482h-38.789062l34.394531-35.394531-21.210938-21.210938-34.394531 34.394531v-38.789062h-30v38.789062l-34.394531-34.394531-21.210938 21.210938 34.394531 35.394531h-108.578124l34.394531-35.394531-21.210938-21.210938-34.394531 34.394531v-38.789062h-30v38.789062l-35.394531-34.394531-21.210938 21.210938 35.394531 35.394531h-108.578124l34.394531-35.394531-21.210938-21.210938-34.394531 34.394531v-38.789062h-30v38.789062l-34.394531-34.394531-21.210938 21.210938 34.394531 35.394531h-38.789062v30h512zm0 0"/><path d="m150 96.4375v-21.4375c0-41.351562-33.648438-75-75-75h-15v96.953125c14.71875-3.507813 29.710938-5.953125 45-5.953125 15.359375 0 30.402344 1.988281 45 5.4375zm0 0"/></svg>