<?xml version="1.0" encoding="utf-8"?>
<!-- Generator: Adobe Illustrator 24.3.0, SVG Export Plug-In . SVG Version: 6.00 Build 0)  -->
<svg version="1.1" id="Calque_1" xmlns="http://www.w3.org/2000/svg" xmlns:xlink="http://www.w3.org/1999/xlink" x="0px" y="0px"
	 viewBox="0 0 624 211" style="enable-background:new 0 0 624 211;" xml:space="preserve">
<style type="text/css">
	.st0{fill:#13110A;}
	.st1{enable-background:new    ;}
	.st2{fill:#FCBD25;}
	.st3{fill:none;}
	.st4{fill:#FDF9E9;}
</style>
<g>
	<g>
		<path class="st0" d="M593.8,200.8H31.3c-11.1,0-20.1-9-20.1-20.1V29.2c0-11.1,9-20.1,20.1-20.1h562.5c11.1,0,20.1,9,20.1,20.1
			v151.5C614,191.8,604.9,200.8,593.8,200.8z"/>
	</g>
	<g>
		<path class="st0" d="M593.8,204.3h-12v-7h12V204.3z M569.9,204.3h-12v-7h12V204.3z M546,204.3h-12v-7h12V204.3z M522.1,204.3h-12
			v-7h12V204.3z M498.1,204.3h-12v-7h12V204.3z M474.2,204.3h-12v-7h12V204.3z M450.3,204.3h-12v-7h12V204.3z M426.4,204.3h-12v-7
			h12V204.3z M402.5,204.3h-12v-7h12V204.3z M378.6,204.3h-12v-7h12V204.3z M354.7,204.3h-12v-7h12V204.3z M330.7,204.3h-12v-7h12
			V204.3z M306.8,204.3h-12v-7h12V204.3z M282.9,204.3h-12v-7h12V204.3z M259,204.3h-12v-7h12V204.3z M235.1,204.3h-12v-7h12V204.3z
			 M211.2,204.3h-12v-7h12V204.3z M187.2,204.3h-12v-7h12V204.3z M163.3,204.3h-12v-7h12V204.3z M139.4,204.3h-12v-7h12V204.3z
			 M115.5,204.3h-12v-7h12V204.3z M91.6,204.3h-12v-7h12V204.3z M67.7,204.3h-12v-7h12V204.3z M43.8,204.3h-12v-7h12V204.3z
			 M18.6,200.6c-4-2.6-7.1-6.2-8.9-10.5l6.4-2.8c1.3,3.1,3.5,5.6,6.3,7.4L18.6,200.6z M606.9,200.3l-3.9-5.8
			c2.8-1.9,4.9-4.5,6.2-7.5l6.5,2.6C613.9,194,610.9,197.7,606.9,200.3z M14.7,176.9h-7v-12h7V176.9z M617.4,176.5h-7v-12h7V176.5z
			 M14.7,153h-7v-12h7V153z M617.4,152.6h-7v-12h7V152.6z M14.7,129.1h-7v-12h7V129.1z M617.4,128.7h-7v-12h7V128.7z M14.7,105.2h-7
			v-12h7V105.2z M617.4,104.8h-7v-12h7V104.8z M14.7,81.3h-7v-12h7V81.3z M617.4,80.9h-7v-12h7V80.9z M14.7,57.3h-7v-12h7V57.3z
			 M617.4,57h-7V45h7V57z M14.7,33.4h-7v-4.2c0-3.1,0.6-6,1.7-8.9l6.5,2.6c-0.8,2-1.2,4.1-1.2,6.2V33.4z M617.4,33h-7v-3.8
			c0-2.3-0.4-4.5-1.3-6.5l6.4-2.8c1.3,2.9,1.9,6.1,1.9,9.3V33z M22,15.4l-3.9-5.8c3.9-2.6,8.4-4,13.2-4l0.1,7
			C28,12.6,24.8,13.6,22,15.4z M602.8,15.2c-2.7-1.7-5.8-2.6-9-2.6h-0.4v-7h0.4c4.6,0,9,1.3,12.8,3.8L602.8,15.2z M581.4,12.6h-12
			v-7h12V12.6z M557.5,12.6h-12v-7h12V12.6z M533.6,12.6h-12v-7h12V12.6z M509.7,12.6h-12v-7h12V12.6z M485.7,12.6h-12v-7h12V12.6z
			 M461.8,12.6h-12v-7h12V12.6z M437.9,12.6h-12v-7h12V12.6z M414,12.6h-12v-7h12V12.6z M390.1,12.6h-12v-7h12V12.6z M366.2,12.6
			h-12v-7h12V12.6z M342.3,12.6h-12v-7h12V12.6z M318.3,12.6h-12v-7h12V12.6z M294.4,12.6h-12v-7h12V12.6z M270.5,12.6h-12v-7h12
			V12.6z M246.6,12.6h-12v-7h12V12.6z M222.7,12.6h-12v-7h12V12.6z M198.8,12.6h-12v-7h12V12.6z M174.8,12.6h-12v-7h12V12.6z
			 M150.9,12.6h-12v-7h12V12.6z M127,12.6h-12v-7h12V12.6z M103.1,12.6h-12v-7h12V12.6z M79.2,12.6h-12v-7h12V12.6z M55.3,12.6h-12
			v-7h12V12.6z"/>
	</g>
</g>
<g class="st1">
	<path class="st2" d="M67,61.7h0.4l4.7-10.5l5.6-12h12.2v44.1H77.7V65.4h-0.3l-3.1,7.1l-2.1,5.2h-9.8l-2.2-5.3l-3-7.2h-0.2v18.1
		H44.8V39.2h11.9l5.1,11.2L67,61.7z"/>
	<path class="st2" d="M110.9,83.4H98.1V39.2h12.8V83.4z"/>
	<path class="st2" d="M154,72.5c-2.6,7.5-8.4,11.2-17.2,11.2c-11.9,0-18-6.6-18-17.3V55.9c0-4.9,1.5-8.9,4.6-12.2
		c3-3.4,7.2-5,12.6-5c9.3,0,15.5,3.9,17.7,11.3L143,54.1c-1.1-3.4-3.2-5.1-6.1-5.1c-3.3,0-5.2,2.6-5.2,6.1v12.1c0,3.6,1.5,6.2,5,6.2
		c3.1,0,5.3-1.8,6.3-5.3L154,72.5z"/>
	<path class="st2" d="M196.4,83.4h-13.2l-6.4-16.2H173v16.2h-12.6V39.2h20.8c9.4,0,15.2,5.3,15.2,13.9c0,5.6-2.6,9.6-7.9,12
		L196.4,83.4z M173,49.2v8.2h6.3c2.2,0,4.4-1.3,4.4-4.1c0-2.8-2.2-4.1-4.8-4.1H173z"/>
	<path class="st2" d="M234.3,43.7c3.1,3.4,4.6,7.9,4.6,13.4v8.2c0,11.3-6.5,18.4-18.4,18.4c-13.2,0-18.1-8.5-18.1-18.4v-8.2
		c0-5.3,1.5-9.6,4.4-13.1c3-3.5,7.5-5.3,13.7-5.3C226.7,38.6,231.2,40.3,234.3,43.7z M215.2,55.6v11.2c0,4.4,1.8,6.7,5.4,6.7
		c3.7,0,5.6-2.2,5.6-6.7V55.6c0-4-1.8-6.7-5.6-6.7C216.8,48.9,215.2,51.8,215.2,55.6z"/>
	<path class="st2" d="M279.8,49.5H268v33.8h-12.7V49.5h-11.9V39.2h36.4V49.5z"/>
	<path class="st2" d="M320.7,83.4h-13.2L301,67.2h-3.8v16.2h-12.6V39.2h20.8c9.4,0,15.2,5.3,15.2,13.9c0,5.6-2.6,9.6-7.9,12
		L320.7,83.4z M297.2,49.2v8.2h6.3c2.2,0,4.4-1.3,4.4-4.1c0-2.8-2.2-4.1-4.8-4.1H297.2z"/>
	<path class="st2" d="M355.2,83.4l-2.4-7.7h-13.3l-2.3,7.7h-13.4l15.9-44.1h13.1l15.7,44.1H355.2z M346.3,53.4H346l-2.1,7.9
		l-1.2,4.4h7l-1.3-4.8L346.3,53.4z"/>
	<path class="st2" d="M407.8,72.5c-2.6,7.5-8.4,11.2-17.2,11.2c-11.9,0-18-6.6-18-17.3V55.9c0-4.9,1.5-8.9,4.6-12.2
		c3-3.4,7.2-5,12.6-5c9.3,0,15.5,3.9,17.7,11.3l-10.7,4.2c-1.1-3.4-3.2-5.1-6.1-5.1c-3.3,0-5.2,2.6-5.2,6.1v12.1
		c0,3.6,1.5,6.2,5,6.2c3.1,0,5.3-1.8,6.3-5.3L407.8,72.5z"/>
	<path class="st2" d="M447.7,49.5h-11.9v33.8h-12.7V49.5h-11.9V39.2h36.4V49.5z"/>
	<path class="st2" d="M486.3,83.4h-33.8V39.2h33.8v10.3h-21.1v6.1h17.4v10.2h-17.4v7.2h21.1V83.4z"/>
	<path class="st2" d="M529.7,39.2v26.4c0,5.1-1.6,9.4-4.8,12.9c-3.1,3.4-7.8,5.1-14.1,5.1c-6.2,0-10.8-1.6-13.8-5
		c-3-3.4-4.4-7.7-4.4-13V39.2h12.7v27.3c0,4.6,2,7,5.8,7c3.5,0,5.8-3.2,5.8-7.2V39.2H529.7z"/>
	<path class="st2" d="M573.4,83.4h-13.2l-6.4-16.2h-3.8v16.2h-12.6V39.2h20.8c9.4,0,15.2,5.3,15.2,13.9c0,5.6-2.6,9.6-7.9,12
		L573.4,83.4z M549.9,49.2v8.2h6.3c2.2,0,4.4-1.3,4.4-4.1c0-2.8-2.2-4.1-4.8-4.1H549.9z"/>
</g>
<rect x="166.9" y="118.5" class="st3" width="283.1" height="83.9"/>
<g class="st1">
	<path class="st2" d="M173.6,128.1h14.2c6.9,0,11.6,2.7,14.2,8c1.1,2.3,1.6,6.8,1.6,13.2c0,7.2-0.5,11.9-1.5,14.4
		c-2.7,6.1-7.6,8.5-15.1,8.5h-13.3V128.1z M200.6,145.8c0-10.7-4.7-15-13.2-15h-10.8v38.7h10.8c8.8,0,13.2-4.9,13.2-14.6V145.8z"/>
	<path class="st2" d="M215.2,172.3h-2.9v-44.1h2.9V172.3z"/>
	<path class="st2" d="M252.2,130.9h-23.7v17.8h20.2v2.6h-20.2v21h-3v-44.1h26.7V130.9z"/>
	<path class="st2" d="M284.3,130.9h-23.7v17.8h20.2v2.6h-20.2v21h-3v-44.1h26.7V130.9z"/>
	<path class="st2" d="M316,128.1h3v29.4c0,4.5-1.4,8.2-4.2,11c-2.9,2.7-6.5,4.1-10.9,4.1c-4.5,0-8.2-1.5-11-4.3
		c-2.7-2.9-4.1-6.7-4.1-11.2v-29h2.9v28.3c0,3.9,1.1,7,3.3,9.6c2.2,2.5,5.2,3.8,8.9,3.8c3.6,0,6.5-1.1,8.7-3.4
		c2.2-2.3,3.4-5.5,3.4-9.5V128.1z"/>
	<path class="st2" d="M339.7,172.6c-5.8,0-10.9-1.6-15.3-4.8l1.8-2.4c4.1,2.9,8.6,4.4,13.7,4.4c7.1,0,12-3.2,12-9.3
		c0-2.7-1.1-4.9-2.6-6.1c-0.7-0.6-1.6-1.2-2.8-1.7c-2.3-1-3.7-1.3-6.5-1.8c-3.2-0.6-4.8-1-7.5-2c-3.7-1.5-5.6-4.2-5.8-9.2
		c0-7.3,5.5-11.9,13.8-11.9c4.9,0,9.1,1.1,12.6,3.4l-1.6,2.5c-3.7-2.1-7.4-3.1-11.2-3.1c-6.1,0-10.7,3.1-10.7,9.1
		c0,2.3,1,4.3,2.2,5.4c0.6,0.5,1.5,1,2.6,1.5c1.2,0.4,2.2,0.8,2.9,1l3.4,0.7c0.3,0,0.4,0.1,0.6,0.1c3.3,0.7,4.9,1.1,7.5,2.3
		c3.8,1.6,5.6,4.6,5.9,10C355,168,349.1,172.6,339.7,172.6z"/>
	<path class="st2" d="M364.9,172.3H362v-44.1h2.9V172.3z"/>
	<path class="st2" d="M399.3,132.2c2.7,2.9,4.1,6.7,4.1,11.3v13.1c0,4.9-1.3,8.8-4.1,11.7c-2.7,2.9-6.4,4.3-11,4.3
		c-5,0-8.8-1.5-11.4-4.6c-2.6-3-3.9-6.8-3.9-11.5v-13.1c0-4.5,1.3-8.2,3.9-11.2c2.7-3,6.5-4.5,11.3-4.5
		C392.9,127.8,396.6,129.3,399.3,132.2z M379.2,134.4c-2.1,2.5-3.2,5.6-3.2,9.3v13.1c0,3.7,1.1,6.8,3.2,9.4c2.2,2.5,5.2,3.8,9.1,3.8
		c3.7,0,6.6-1.3,8.7-3.7c2.2-2.5,3.2-5.7,3.2-9.7v-12.9c0-3.7-1.1-6.8-3.2-9.3c-2.2-2.5-5.1-3.7-8.7-3.7
		C384.4,130.6,381.3,131.9,379.2,134.4z"/>
	<path class="st2" d="M440.4,172.3l-16.5-24.8l-9.4-14.3l-0.1,0.1v39h-3v-44.1h3l16.4,24.6l9.6,14.6c0.1,0,0.1,0,0.1-0.1v-39.2h2.9
		v44.1H440.4z"/>
</g>
<g>
	<path class="st2" d="M569.8,105.6H47.1c-1.1,0-2-0.9-2-2s0.9-2,2-2h522.7c1.1,0,2,0.9,2,2S570.9,105.6,569.8,105.6z"/>
</g>
<g id="Composant_1_1_1_">
	<g>
		<path id="Rectangle_1_9_" class="st4" d="M69.1-367.3h568.7c8.4,0,15.2,8,15.2,17.8v127.3c0,9.9-6.8,17.8-15.2,17.8H69.1
			c-8.4,0-15.2-8-15.2-17.8v-127.3C53.8-359.3,60.7-367.3,69.1-367.3z"/>
	</g>
</g>
</svg>
