<?xml version="1.0" encoding="utf-8"?>
<!-- Generator: Adobe Illustrator 24.3.0, SVG Export Plug-In . SVG Version: 6.00 Build 0)  -->
<svg version="1.1" id="Calque_1" xmlns="http://www.w3.org/2000/svg" xmlns:xlink="http://www.w3.org/1999/xlink" x="0px" y="0px"
	 viewBox="0 0 287.4 135.2" style="enable-background:new 0 0 287.4 135.2;" xml:space="preserve">
<style type="text/css">
	.st0{fill:#F8BA32;}
</style>
<path class="st0" d="M270.4,53c0.7,0,1.4,0.2,2.1,0.5c0.7,0.4,1.2,0.9,1.6,1.6c0.4,0.7,0.6,1.4,0.6,2.1c0,0.7-0.2,1.4-0.6,2.1
	c-0.4,0.7-0.9,1.2-1.6,1.6c-0.7,0.4-1.4,0.6-2.1,0.6s-1.4-0.2-2.1-0.6c-0.7-0.4-1.2-0.9-1.6-1.6c-0.4-0.7-0.6-1.4-0.6-2.1
	c0-0.7,0.2-1.4,0.6-2.1c0.4-0.7,0.9-1.2,1.6-1.6C269,53.2,269.7,53,270.4,53 M270.4,53.7c-0.6,0-1.2,0.2-1.7,0.5
	c-0.6,0.3-1,0.7-1.3,1.3s-0.5,1.2-0.5,1.8s0.2,1.2,0.5,1.8s0.7,1,1.3,1.3c0.6,0.3,1.1,0.5,1.8,0.5c0.6,0,1.2-0.2,1.8-0.5
	c0.6-0.3,1-0.7,1.3-1.3s0.5-1.1,0.5-1.8c0-0.6-0.2-1.2-0.5-1.8s-0.8-1-1.3-1.3C271.5,53.9,271,53.7,270.4,53.7 M268.5,59.6V55h1.6
	c0.5,0,0.9,0,1.2,0.1c0.2,0.1,0.4,0.2,0.6,0.4c0.1,0.2,0.2,0.4,0.2,0.7s-0.1,0.6-0.4,0.9c-0.2,0.2-0.6,0.4-0.9,0.4
	c0.2,0.1,0.3,0.1,0.4,0.2c0.2,0.2,0.4,0.5,0.7,0.9l0.6,0.9h-0.9l-0.4-0.7c-0.3-0.6-0.6-0.9-0.8-1.1c-0.1-0.1-0.3-0.2-0.6-0.2h-0.4
	v1.9h-0.9V59.6z M269.3,57h0.9c0.4,0,0.7-0.1,0.9-0.2c0.2-0.1,0.2-0.3,0.2-0.5c0-0.1,0-0.3-0.1-0.4c-0.1-0.1-0.2-0.2-0.3-0.2
	c-0.1-0.1-0.4-0.1-0.7-0.1h-0.8V57H269.3z"/>
<path class="st0" d="M93.1,91.6H76c-4.7,3.2-10.4,5.1-16.6,5.1C43.2,96.8,30,83.6,30,67.4C30,51.1,43.2,38,59.4,38
	c5,0,9.7,1.3,13.8,3.5h17.2c0.4-2,1.7-3.8,3.4-4.9c-1.6-1.8-3.3-3.5-5.2-5c-1.3,2.3-3.8,3.8-6.6,3.8c-4.2,0-7.6-3.4-7.6-7.6
	c0-1.3,0.4-2.6,1-3.7c-2.9-1.1-5.8-1.8-8.9-2.3c-0.1,4.2-3.4,7.5-7.6,7.5c-4.1,0-7.4-3.3-7.6-7.4c-2.7,0.5-5.3,1.2-7.9,2.1
	c0.5,1,0.8,2.2,0.8,3.4c0,4.2-3.4,7.6-7.6,7.6c-2.7,0-5-1.4-6.4-3.5c-1.9,1.5-3.6,3.3-5.3,5.1c2.1,1.4,3.4,3.7,3.4,6.4
	c0,4.2-3.4,7.6-7.6,7.6c-1.5,0-2.8-0.4-4-1.1c-0.9,2.3-1.7,4.6-2.3,7c3.8,0.4,6.8,3.6,6.8,7.5c0,4.2-3.4,7.6-7.6,7.6
	c-0.1,0-0.2,0-0.3,0c0.3,3.4,1,6.7,2,9.9c1-0.5,2.1-0.7,3.2-0.7c4.2,0,7.6,3.4,7.6,7.6c0,2.8-1.6,5.3-3.9,6.6c2,2.7,4.3,5.2,6.9,7.4
	c1.3-2.2,3.7-3.6,6.4-3.6c4.2,0,7.6,3.4,7.6,7.6c0,1.4-0.4,2.7-1.1,3.9c2.9,1.2,5.9,2,9.1,2.6c0.3-4,3.5-7.1,7.6-7.1
	s7.4,3.2,7.6,7.3c3.4-0.5,6.7-1.4,9.8-2.6c-0.7-1.2-1.2-2.6-1.2-4c0-4.2,3.4-7.6,7.6-7.6c2.9,0,5.3,1.6,6.6,3.9
	c2.7-2.3,5-4.8,7.1-7.6C95,94.3,93.8,93.1,93.1,91.6"/>
<polygon class="st0" points="70.5,82.6 45,82.6 45,53.7 53.9,53.7 53.9,75.1 76.3,75.1 "/>
<path class="st0" d="M98.2,82.6h-1.9c-12,0-18-4.4-18-13.1V53.7h8.9v15.7c0,2.6,1.2,4.3,3.4,5c1.2,0.4,3.7,0.6,7.5,0.6
	c3,0,5.2-0.3,6.4-1c1.7-0.8,2.6-2.4,2.6-4.7V53.7h9v15.7C116.2,78.2,110.2,82.6,98.2,82.6"/>
<path class="st0" d="M161.8,82.7L158,67.4l-8.1,13c-1,1.7-2.5,2.5-4.4,2.5c-1,0-1.9-0.2-2.8-0.7c-0.9-0.5-1.6-1.1-2-1.8l-8.1-13
	l-3.8,15.3H119l7.5-25.6c0.3-1,0.9-1.9,1.8-2.6c1-0.7,2-1.1,3.3-1.1c1.9,0,3.6,1.1,4.9,3.4l8.8,14.4l8.9-14.4c1.4-2.2,3-3.4,4.9-3.4
	c1.2,0,2.4,0.4,3.3,1c0.9,0.7,1.6,1.6,1.9,2.6l7.5,25.6L161.8,82.7L161.8,82.7z"/>
<path class="st0" d="M192.2,75.1h12.1l-7.5-10.4l-13,17.9h-11.1l18.5-25.7c0.6-0.8,1.4-1.6,2.4-2.2c1.2-0.7,2.2-1,3.3-1
	s2.2,0.4,3.3,1c1,0.6,1.8,1.4,2.4,2.2l18.1,25.7h-33.9L192.2,75.1z"/>
<path class="st0" d="M253.4,61.2h-14.5c-2.4,0-4.5,0.7-6.1,2s-2.4,3-2.4,5.1c0,2,0.8,3.7,2.4,5c1.6,1.3,3.6,1.9,6.1,1.9h10.4v-2.7
	h-11.2l-5.9-7.1h26.1v17.3h-19.4c-5,0-9.2-1.4-12.5-4.2c-3.3-2.8-5-6.3-5-10.5s1.6-7.6,4.9-10.3c3.2-2.6,7.5-3.9,12.5-3.9h20.3
	L253.4,61.2z"/>
<path class="st0" d="M115.1,93c-0.8-0.3-1.5-0.5-2.4-0.5c-0.7,0-1.2,0.1-1.4,0.2c-0.5,0.1-1.5,0.5-2.2,1.8c-0.2,0.4-0.5,1.1-0.5,2.2
	c0,0.2,0,0.8,0.2,1.3c0.5,1.2,1.6,1.8,2.8,1.8c0.3,0,0.6,0,1.2-0.1l0.6-2.8h-1.9l0.2-1.1h3.2l-1.1,4.8c-1.1,0.2-1.5,0.3-2.1,0.3
	c-0.2,0-0.6,0-1.1-0.1c-0.8-0.1-1.6-0.4-2.2-1c-1.2-1.1-1.3-2.5-1.3-3.1c0-0.8,0.1-1.4,0.2-1.7c0.3-1.1,0.8-2,1.7-2.6
	c0.6-0.4,1.7-1.1,3.5-1.1c1.4,0,2.3,0.4,2.9,0.5L115.1,93z"/>
<polygon class="st0" points="137.5,91.7 137.3,92.7 133.5,92.7 132.9,95.5 136.4,95.5 136.2,96.6 132.7,96.6 132.1,99.7 135.9,99.7 
	135.7,100.8 130.5,100.8 132.4,91.7 "/>
<path class="st0" d="M157.2,100.8c-0.2-0.8-0.4-1.7-0.6-2.5c-0.2-0.8-0.2-1.1-0.6-1.4c-0.3-0.2-0.5-0.2-0.8-0.2h-1l-0.9,4.1H152
	l1.9-9.2c0.9,0,1.8,0,2.6,0c0.9,0,1.6,0.1,2.2,0.8c0.5,0.5,0.5,1.1,0.5,1.3c0,0.9-0.6,1.8-1.4,2.2c-0.4,0.2-0.9,0.3-1,0.3
	c0.3,0.2,0.5,0.3,0.6,0.6c0.1,0.3,0.3,0.9,0.5,1.6s0.4,1.5,0.6,2.2h-1.3V100.8z M154.4,95.6c1.1,0,1.8,0,2.3-0.2
	c0.6-0.2,1.2-0.8,1.2-1.5c0-0.8-0.5-1-0.8-1.1c-0.5-0.2-1-0.2-2.1-0.1L154.4,95.6z"/>
<path class="st0" d="M178.5,91.7l1.1,7.7l4.5-7.7h2.2l-1.9,9.2h-1.3c0.2-0.9,0.3-1.8,0.5-2.7c0.1-0.6,0.3-1.3,0.4-1.9
	c0.2-0.7,0.3-1.5,0.5-2.2c0.1-0.6,0.3-1.2,0.5-1.8c-0.3,0.5-0.5,1.1-0.9,1.6c-0.2,0.4-0.5,0.8-0.7,1.2l-0.6,0.9c-1,1.7-2,3.3-3,5
	h-1.3l-1.4-8.7c-0.1,0.8-0.3,1.6-0.4,2.5c-0.2,1-0.4,2.1-0.7,3.1c-0.2,1-0.4,2.1-0.6,3.1h-1.3l2-9.2L178.5,91.7L178.5,91.7z"/>
<path class="st0" d="M207.2,91.6l2,9.2h-1.3l-0.5-2.3h-4.6l-1.5,2.3h-1.5l5.9-9.2H207.2z M207.2,97.4l-0.4-1.7
	c-0.1-0.5-0.2-1-0.3-1.5s-0.2-1-0.2-1.4c-0.3,0.5-0.6,1.1-0.9,1.6c-0.3,0.5-0.6,0.9-0.9,1.4c-0.4,0.6-0.7,1.1-1,1.7L207.2,97.4z"/>
<path class="st0" d="M228.4,91.6c0.7,2,1.5,4,2.1,6c0.1,0.4,0.3,0.8,0.4,1.3c0.1,0.4,0.2,0.7,0.2,1.1c0.1-0.8,0.2-1.7,0.4-2.5
	c0.2-1,0.4-2,0.6-2.9c0.2-1,0.4-2,0.6-3h1.2l-1.9,9.2h-1.7c-0.4-1.1-0.8-2.3-1.2-3.4c-0.3-0.8-0.6-1.7-0.9-2.5
	c-0.2-0.8-0.4-1.6-0.7-2.4c-0.1,0.7-0.2,1.5-0.4,2.2c-0.2,0.9-0.3,1.7-0.5,2.6c-0.2,1.1-0.5,2.3-0.7,3.4h-1.2l1.9-9.2L228.4,91.6z"
	/>
<polygon class="st0" points="252.7,95.8 256.4,91.6 258.1,91.6 253.2,96.9 252.4,100.8 251.1,100.8 251.9,96.9 249.4,91.6 
	250.9,91.6 "/>
<g>
	<path class="st0" d="M205,27.9c0.6-0.1,1.3-0.2,2-0.2c1.4,0,2.4,0.4,3,1.1c0.4,0.5,0.8,1.2,0.8,2.2c0,1.5-0.6,2.9-1.6,3.8
		c-0.9,0.8-2.1,1.1-3.7,1.1c-0.7,0-1.4,0-2-0.1L205,27.9z M204.7,35c0.4,0,0.7,0.1,1,0.1c1.3,0,2.2-0.4,2.9-1.1
		c0.7-0.7,1.1-1.8,1.1-3c0-1.4-0.7-2.5-2.7-2.5c-0.4,0-0.8,0-1.1,0.1L204.7,35z"/>
	<path class="st0" d="M211.3,35.9l1.1-5.8h1l-1.1,5.8H211.3z M212.6,28.4c0-0.4,0.3-0.7,0.7-0.7c0.4,0,0.6,0.3,0.6,0.6
		c0,0.4-0.3,0.7-0.7,0.7C212.8,29.1,212.6,28.8,212.6,28.4z"/>
	<path class="st0" d="M214.1,34.9c0.3,0.2,0.8,0.4,1.2,0.4c0.7,0,1.1-0.4,1.1-0.9c0-0.5-0.2-0.7-0.8-1.1c-0.7-0.4-1-0.9-1-1.5
		c0-1,0.9-1.8,2.1-1.8c0.5,0,1,0.1,1.2,0.3l-0.3,0.8c-0.2-0.1-0.6-0.3-1-0.3c-0.6,0-1,0.4-1,0.9c0,0.4,0.3,0.7,0.8,1
		c0.6,0.4,1.1,0.9,1.1,1.5c0,1.2-1,1.9-2.2,1.9c-0.6,0-1.2-0.2-1.4-0.4L214.1,34.9z"/>
	<path class="st0" d="M221.1,28.5l-0.3,1.6h1.4l-0.2,0.8h-1.4l-0.5,2.8c-0.1,0.3-0.1,0.6-0.1,0.9c0,0.3,0.2,0.6,0.6,0.6
		c0.2,0,0.3,0,0.5,0l0,0.8c-0.2,0.1-0.5,0.1-0.8,0.1c-0.9,0-1.2-0.5-1.2-1.1c0-0.3,0-0.7,0.1-1.1l0.6-2.9h-0.8l0.2-0.8h0.8l0.3-1.3
		L221.1,28.5z"/>
	<path class="st0" d="M222.3,35.9l0.7-3.7c0.1-0.8,0.2-1.5,0.3-2.1h0.9c0,0.4-0.1,0.8-0.2,1.3h0c0.4-0.8,1-1.4,1.8-1.4
		c0.1,0,0.2,0,0.3,0l-0.2,1c-0.1,0-0.2,0-0.3,0c-0.9,0-1.6,1-1.9,2.4l-0.5,2.6H222.3z"/>
	<path class="st0" d="M226.1,35.9l1.1-5.8h1l-1.1,5.8H226.1z M227.4,28.4c0-0.4,0.3-0.7,0.7-0.7c0.4,0,0.6,0.3,0.6,0.6
		c0,0.4-0.3,0.7-0.7,0.7C227.6,29.1,227.4,28.8,227.4,28.4z"/>
	<path class="st0" d="M231.4,27.4l-0.8,3.8h0c0.5-0.8,1.3-1.2,2-1.2c1.3,0,1.8,1.1,1.8,2.1c0,1.8-1.3,4-3.6,4c-1,0-1.8-0.4-1.8-1.5
		c0-0.3,0-0.6,0.1-0.9l1.3-6.2H231.4z M230.1,33.6c0,0.2-0.1,0.4-0.1,0.7c0,0.6,0.3,0.9,0.9,0.9c1.5,0,2.4-1.8,2.4-3.1
		c0-0.7-0.3-1.4-1.1-1.4c-0.9,0-1.8,0.9-2,2.3L230.1,33.6z"/>
	<path class="st0" d="M240.8,30.1l-0.8,4.1c-0.1,0.6-0.2,1.2-0.3,1.7h-0.9l0.2-1.1h0c-0.5,0.8-1.3,1.2-2.1,1.2
		c-0.7,0-1.5-0.4-1.5-1.7c0-0.3,0-0.6,0.1-1l0.6-3.3h1l-0.6,3.2c-0.1,0.3-0.1,0.6-0.1,0.9c0,0.6,0.3,1,0.9,1c0.7,0,1.6-0.8,1.9-2.1
		l0.6-3H240.8z"/>
	<path class="st0" d="M244,28.5l-0.3,1.6h1.4l-0.2,0.8h-1.4l-0.5,2.8c-0.1,0.3-0.1,0.6-0.1,0.9c0,0.3,0.2,0.6,0.6,0.6
		c0.2,0,0.3,0,0.5,0l0,0.8c-0.2,0.1-0.5,0.1-0.8,0.1c-0.9,0-1.2-0.5-1.2-1.1c0-0.3,0-0.7,0.1-1.1l0.6-2.9h-0.8l0.2-0.8h0.8l0.3-1.3
		L244,28.5z"/>
	<path class="st0" d="M249.3,35.5c-0.4,0.3-1.1,0.5-1.9,0.5c-1.5,0-2.2-1-2.2-2.3c0-1.8,1.3-3.7,3.2-3.7c1.1,0,1.7,0.7,1.7,1.5
		c0,1.5-1.7,1.9-3.9,1.9c0,0.3,0,0.8,0.1,1.1c0.2,0.5,0.7,0.8,1.3,0.8c0.7,0,1.2-0.2,1.6-0.4L249.3,35.5z M248.2,30.7
		c-0.9,0-1.7,0.9-1.9,1.8c1.6,0,2.8-0.2,2.8-1.1C249.1,31,248.8,30.7,248.2,30.7z"/>
	<path class="st0" d="M256.2,30.1l-0.8,4.1c-0.1,0.6-0.2,1.2-0.3,1.7h-0.9l0.2-1.1h0c-0.5,0.8-1.3,1.2-2.1,1.2
		c-0.7,0-1.5-0.4-1.5-1.7c0-0.3,0-0.6,0.1-1l0.6-3.3h1l-0.6,3.2c-0.1,0.3-0.1,0.6-0.1,0.9c0,0.6,0.3,1,0.9,1c0.7,0,1.6-0.8,1.9-2.1
		l0.6-3H256.2z"/>
	<path class="st0" d="M256.9,35.9l0.7-3.7c0.1-0.8,0.2-1.5,0.3-2.1h0.9c0,0.4-0.1,0.8-0.2,1.3h0c0.4-0.8,1-1.4,1.8-1.4
		c0.1,0,0.2,0,0.3,0l-0.2,1c-0.1,0-0.2,0-0.3,0c-0.9,0-1.6,1-1.9,2.4l-0.5,2.6H256.9z"/>
</g>
</svg>
